<?xml version="1.0" encoding="UTF-8"?>
<svg id="Lag_2" data-name="Lag 2" xmlns="http://www.w3.org/2000/svg" viewBox="0 0 58.69 23.53">
  <g id="Lag_1-2" data-name="Lag 1">
    <path d="m.75,12.06c.67-1.41,1.56-2.72,2.63-3.86.43-.46,1.1-.92,1.62-.58.43.28.43.91.35,1.42-.29,1.8-.9,3.55-1.8,5.14.88-2.19,2.24-4.18,3.96-5.79.34-.32.78-.64,1.22-.49.47.16.6.78.52,1.27-.13.76-.57,1.42-.82,2.14s-.26,1.64.33,2.14c.57.48,1.48.33,2.06-.14s1.45-1.79,1.76-2.47m9.52-.79c-.52.74-2.3,2.89-3.1,3.38-.36.22-.76.45-1.17.38-.4-.07-.71-.41-.82-.8s-.05-.8.08-1.18c.26-.73.77-1.35,1.05-2.08s.26-1.68-.37-2.13c-.48-.35-1.14-.28-1.7-.11-2.14.65-3.76,2.75-3.84,4.99-.02.45.05.95.41,1.22.5.37,1.2.06,1.71-.28,2.17-1.45,3.92-3.52,5-5.9M27.84.75c-2.57,3.07-4.84,6.5-6.09,10.31-.31.92-.67,2.12-.02,2.84.6.67,2.52-.52,3.28-1s1.64-1.61,1.64-1.61m2.68-6.25l-7.04.09m14.31,5.53c-.41.66-1.26,1.58-1.83,2.1s-1.57,1.23-2.34,1.14-.87-1.19-.89-1.97c-.03-.81,0-1.39.51-2.03s.92-2.05.36-2.64c-.45-.48-1.31-.22-1.94,0-1.59.56-2.7,2.03-3.54,3.48-.23.39-.42.81-.45,1.26s.12.93.47,1.2c.4.31,1.23.36,1.7.16s.87-.58,1.23-.94c1.53-1.52,2.66-3.19,3.97-4.91m24.12,3.34c-.41.66-1.26,1.58-1.83,2.1s-1.57,1.23-2.34,1.14-.87-1.19-.89-1.97c-.03-.81,0-1.39.51-2.03s.92-2.05.36-2.64c-.45-.48-1.31-.22-1.94,0-1.59.56-2.7,2.03-3.54,3.48-.23.39-.42.81-.45,1.26s.12.93.47,1.2c.4.31,1.23.36,1.7.16s.87-.58,1.23-.94c1.53-1.52,2.66-3.19,3.97-4.91m-10.26,1.91c-1.67,2.31-3.6,2.64-5.35,2.83-.53.06-1.06.07-1.57.21s-1.01.45-1.22.94.12.77.61.97c1.09.07,1.97-.28,2.47-1.25s.55-2.12.33-3.19-.67-2.07-1.11-3.07c-.12-.27-.24-.56-.21-.85s.28-.59.57-.55c.3.03.48.39.44.69s-.24.55-.43.79c-.96,1.18-2.59,3.25-3.55,4.43m11.97.14c-2.16,3.48-2.33,1.81-6.94,4.28-2.02,1.08-3.46,3.23-3.84,4.14s-.54,2.4.42,2.65c.8.21,2.45-1.22,2.9-1.92,1.89-2.95,2.64-4.7,3.35-7.39.69-2.58,1.39-4.74,2.08-6.46m1.18-3.78c-.26-.15-.63.05-.71.35s.07.61.29.82c.18.17.42.29.67.27s.49-.2.52-.45c.03-.24-.13-.47-.35-.59s-.46-.15-.7-.18" fill="none" stroke="#312783" stroke-linecap="round" stroke-linejoin="round" stroke-width="1.5"/>
  </g>
</svg>